# xmcd
#
# Track frame offsets:
# 150
# 71106
# 118196
# 189002
#
# Disc length: 3908 seconds
#
# Revision: 0
# Processed by: cddbd v1.4PL0 Copyright (c) Steve Scherf et al.
# Submitted via: Audion 3.0.2 (http://www.panic.com/audion/)
#
DISCID=320f4204
DTITLE=Taylor Deupree - stil.
DYEAR=1900
DGENRE=
TTITLE0=snow/sand
TTITLE1=recur
TTITLE2=temper
TTITLE3=stil.
EXTD=
EXTT0=
EXTT1=
EXTT2=
EXTT3=
PLAYORDER=
